<svg version="1.1" id="Capa_1" xmlns="http://www.w3.org/2000/svg" xmlns:xlink="http://www.w3.org/1999/xlink" x="0px" y="0px" viewBox="0 0 512 512" style="enable-background:new 0 0 512 512;" xml:space="preserve"><g><g><path d="M493.247,320.32l-77.248-19.328v-24.747c36.096-5.227,64-36.075,64-73.579c0-37.504-27.904-68.352-64-73.579V10.667 C415.999,4.779,411.22,0,405.332,0H106.666c-5.888,0-10.667,4.779-10.667,10.667v480H21.332c-5.888,0-10.667,4.779-10.667,10.667 c0,5.888,4.779,10.667,10.667,10.667h170.667c5.888,0,10.667-4.779,10.667-10.667c0-5.888-4.779-10.667-10.667-10.667h-74.667 V143.083L239.082,21.333h155.584v107.755c-36.096,5.227-64,36.075-64,73.579c0,37.504,27.904,68.352,64,73.579v24.747 l-77.248,19.307c-5.739,1.429-9.195,7.232-7.765,12.928c1.195,4.885,5.547,8.107,10.347,8.107c0.853,0,1.728-0.107,2.581-0.32 l72.085-18.005v88.576l-60.885,60.885c-4.16,4.16-4.16,10.923,0,15.083c4.16,4.16,10.923,4.16,15.083,0l56.448-56.448 l56.448,56.448c2.112,2.069,4.843,3.115,7.573,3.115s5.461-1.045,7.552-3.115c4.16-4.16,4.16-10.923,0-15.083l-60.885-60.885 v-88.576l72.085,18.027c0.875,0.192,1.728,0.299,2.581,0.299c4.8,0,9.152-3.221,10.347-8.085 C502.441,327.552,498.986,321.749,493.247,320.32z M117.332,112.917V21.333h91.584L117.332,112.917z M405.332,256 c-29.419,0-53.333-23.915-53.333-53.333c0-29.419,23.915-53.333,53.333-53.333s53.333,23.915,53.333,53.333 C458.665,232.085,434.751,256,405.332,256z"></path></g></g></svg>